<?xml version="1.0" standalone="no"?>
<!DOCTYPE svg PUBLIC "-//W3C//DTD SVG 20010904//EN"
 "http://www.w3.org/TR/2001/REC-SVG-20010904/DTD/svg10.dtd">
<svg version="1.0" xmlns="http://www.w3.org/2000/svg"
 width="512.000000pt" height="512.000000pt" viewBox="0 0 512.000000 512.000000"
 preserveAspectRatio="xMidYMid meet">
<metadata>
Created by potrace 1.16, written by Peter Selinger 2001-2019
</metadata>
<g transform="translate(0.000000,512.000000) scale(0.100000,-0.100000)"
fill="#000000" stroke="none">
<path d="M2265 5109 c-487 -60 -917 -239 -1310 -547 -105 -82 -350 -334 -433
-444 -263 -351 -430 -742 -498 -1163 -25 -155 -30 -537 -10 -705 67 -548 307
-1056 688 -1455 395 -413 874 -668 1442 -767 174 -30 543 -37 727 -13 1188
149 2110 1084 2239 2272 16 145 8 533 -14 667 -184 1134 -1088 2011 -2216
2151 -135 16 -493 19 -615 4z m473 -860 c580 -64 1094 -424 1346 -944 323
-665 191 -1434 -335 -1952 -435 -428 -1028 -587 -1625 -434 -383 98 -747 359
-975 700 -383 571 -383 1311 0 1882 351 525 970 816 1589 748z"/>
<path d="M2479 3980 c-80 -42 -180 -189 -249 -367 -35 -90 -95 -301 -113 -400
l-6 -33 449 0 450 0 -7 33 c-19 107 -80 317 -118 410 -123 305 -267 431 -406
357z"/>
<path d="M2030 3905 c-94 -37 -201 -95 -295 -159 -167 -113 -363 -333 -449
-503 -14 -29 -26 -55 -26 -58 0 -3 133 -5 295 -5 228 0 296 3 299 13 2 6 16
71 31 142 35 167 91 339 156 476 29 60 50 111 48 113 -2 1 -29 -7 -59 -19z"/>
<path d="M3030 3920 c0 -4 22 -54 50 -112 63 -132 120 -307 155 -473 15 -71
29 -136 31 -142 3 -10 71 -13 299 -13 162 0 295 3 295 8 0 13 -86 159 -135
229 -69 97 -235 258 -340 329 -124 85 -355 198 -355 174z"/>
<path d="M1156 2903 c-47 -153 -47 -533 0 -685 5 -17 30 -18 335 -18 l331 0
-8 68 c-10 87 -10 497 0 585 l8 67 -331 0 c-305 0 -330 -1 -335 -17z"/>
<path d="M2067 2813 c-4 -58 -7 -172 -7 -253 0 -81 3 -195 7 -253 l6 -107 487
0 487 0 6 107 c9 136 9 370 0 506 l-6 107 -487 0 -487 0 -6 -107z"/>
<path d="M3306 2853 c4 -38 8 -169 8 -293 0 -124 -4 -255 -8 -292 l-8 -68 331
0 c305 0 330 1 335 18 3 9 12 57 21 106 27 156 16 459 -21 579 -5 16 -30 17
-335 17 l-331 0 8 -67z"/>
<path d="M1260 1935 c0 -3 12 -29 26 -58 116 -230 370 -479 609 -600 96 -48
195 -87 195 -78 0 5 -22 55 -50 113 -63 132 -120 307 -155 473 -15 72 -29 136
-31 143 -3 9 -71 12 -299 12 -162 0 -295 -2 -295 -5z"/>
<path d="M2117 1908 c36 -200 122 -451 197 -578 163 -279 325 -281 488 -8 75
127 165 386 201 586 l7 32 -450 0 -449 0 6 -32z"/>
<path d="M3266 1928 c-2 -7 -16 -71 -31 -143 -35 -166 -92 -341 -155 -473 -28
-58 -50 -108 -50 -113 0 -9 99 30 195 78 175 88 388 270 499 426 50 70 136
215 136 229 0 5 -133 8 -295 8 -228 0 -296 -3 -299 -12z"/>
</g>
</svg>
